# xmcd
#
# Track frame offsets: 
#        150
#        6507
#        16648
#        25094
#        30201
#        38685
#        52450
#        83069
#        94438
#        105501
#        120798
#        131057
#        138016
#        150603
#
# Disc length: 2246 seconds
#
# Revision: 0
# Processed by: cddbd v1.5.1PL0 Copyright (c) Steve Scherf et al.
# Submitted via: ExactAudioCopy v0.95a5
#
DISCID=9f08c40e
DTITLE=Loren MazzaCane Connors - The Little Match Girl
DYEAR=2001
DGENRE=Blues
TTITLE0=The Little Match Girl
TTITLE1=Falling Snow
TTITLE2=She Was Hungry and Very Very Cold
TTITLE3=The Veil
TTITLE4=Grandmother
TTITLE5=Falling Star (Comets Light The Way)
TTITLE6=The Dawn
TTITLE7=The Art of the Blues 1
TTITLE8=The Art of the Blues 2
TTITLE9=The Art of the Blues 3
TTITLE10=The Art of the Blues 4
TTITLE11=The Art of the Blues 5
TTITLE12=The Art of the Blues 6
TTITLE13=The Art of the Blues 7
EXTD=
EXTT0=
EXTT1=
EXTT2=
EXTT3=
EXTT4=
EXTT5=
EXTT6=
EXTT7=
EXTT8=
EXTT9=
EXTT10=
EXTT11=
EXTT12=
EXTT13=
PLAYORDER=
